<?xml version="1.0" encoding="utf-8"?>
<!-- Generator: Adobe Illustrator 19.0.0, SVG Export Plug-In . SVG Version: 6.00 Build 0)  -->
<!DOCTYPE svg PUBLIC "-//W3C//DTD SVG 1.0//EN" "http://www.w3.org/TR/2001/REC-SVG-20010904/DTD/svg10.dtd">
<svg version="1.0" id="Ebene_1" xmlns="http://www.w3.org/2000/svg" xmlns:xlink="http://www.w3.org/1999/xlink" x="0px" y="0px"
	 viewBox="0 0 16 16" enable-background="new 0 0 16 16" xml:space="preserve">
<polygon id="XMLID_19_" points="13.4,4.4 13.4,1.2 13.3,1.2 13.3,1.2 8.5,1.2 8.5,1.9 12.6,1.9 12.6,4.4 11.3,4.4 13,7.1 14.6,4.4 
	"/>
<path d="M1.6,7.1V0h2.3c0.9,0,1.5,0,1.7,0.1C6,0.2,7.1,0.8,7.1,2.2c0,1-0.6,1.6-0.8,1.8C6,4.2,5.8,4.3,5.5,4.3
	C5.2,4.4,4.7,4.4,4,4.4H3.1v2.7C3.1,7.1,1.6,7.1,1.6,7.1z M3.1,1.2v2h0.8c0.6,0,0.9,0,1.1-0.1C5.2,3,5.4,2.9,5.5,2.8
	c0.1-0.2,0.2-0.3,0.2-0.6s0-0.9-0.9-1c-0.2,0-0.5,0-1,0H3.1z"/>
<g>
	<rect x="11" y="14.2" fill="#FFFFFF" width="4" height="1.8"/>
	<path d="M1,14.2h4V16h1v-1.8h4V16h1v-1.8h4V16h1v-1.8v-1V8.7H0v4.5v1V16h1V14.2z M11,9.7h4v3.5h-4V9.7z M6,9.7h4v3.5H6V9.7z M1,9.7
		h4v3.5H1V9.7z"/>
	<rect x="6" y="14.2" fill="#FFFFFF" width="4" height="1.8"/>
	<rect x="1" y="14.2" fill="#FFFFFF" width="4" height="1.8"/>
	<rect x="11" y="9.7" fill="#FFFFFF" width="4" height="3.5"/>
	<rect x="6" y="9.7" fill="#FFFFFF" width="4" height="3.5"/>
	<rect x="1" y="9.7" fill="#FFFFFF" width="4" height="3.5"/>
</g>
</svg>
