<?xml version="1.0" encoding="utf-8"?>
<!-- Generator: Adobe Illustrator 19.0.0, SVG Export Plug-In . SVG Version: 6.00 Build 0)  -->
<!DOCTYPE svg PUBLIC "-//W3C//DTD SVG 1.0//EN" "http://www.w3.org/TR/2001/REC-SVG-20010904/DTD/svg10.dtd">
<svg version="1.0" id="Ebene_1" xmlns="http://www.w3.org/2000/svg" xmlns:xlink="http://www.w3.org/1999/xlink" x="0px" y="0px"
	 viewBox="0 0 16 16" enable-background="new 0 0 16 16" xml:space="preserve">
<polygon id="XMLID_19_" points="5.2,13.4 2,13.4 2,13.4 2,13.4 2,10.2 2.8,10.2 2.8,12.6 5.2,12.6 5.2,11.4 8,13 5.2,14.6 "/>
<path d="M9.3,16V8.8h2.3c0.9,0,1.5,0,1.7,0.1c0.4,0.1,0.8,0.3,1,0.7c0.3,0.4,0.4,0.8,0.4,1.4c0,0.4-0.1,0.8-0.2,1.1
	c-0.2,0.3-0.4,0.5-0.6,0.7c-0.2,0.2-0.5,0.3-0.7,0.3c-0.3,0.1-0.8,0.1-1.5,0.1h-0.9V16H9.3z M10.7,10v2h0.8c0.6,0,0.9,0,1.1-0.1
	c0.2-0.1,0.3-0.2,0.5-0.4c0.1-0.2,0.2-0.3,0.2-0.6c0-0.3-0.1-0.5-0.2-0.6c-0.2-0.2-0.3-0.3-0.6-0.3c-0.2,0-0.5,0-1,0H10.7z"/>
<g>
	<rect x="1" y="0" fill="#FFFFFF" width="4" height="1.8"/>
	<path d="M15,1.8h-4V0h-1v1.8H6V0H5v1.8H1V0H0v1.8v1v4.5h16V2.8v-1V0h-1V1.8z M5,6.3H1V2.8h4V6.3z M10,6.3H6V2.8h4V6.3z M15,6.3h-4
		V2.8h4V6.3z"/>
	<rect x="6" y="0" fill="#FFFFFF" width="4" height="1.8"/>
	<rect x="11" y="0" fill="#FFFFFF" width="4" height="1.8"/>
	<rect x="1" y="2.8" fill="#FFFFFF" width="4" height="3.5"/>
	<rect x="6" y="2.8" fill="#FFFFFF" width="4" height="3.5"/>
	<rect x="11" y="2.8" fill="#FFFFFF" width="4" height="3.5"/>
</g>
</svg>
